<svg xmlns="http://www.w3.org/2000/svg" viewBox="0 0 64 64" role="img" aria-label="Mandalorian crest">
  <rect width="64" height="64" rx="12" fill="#0b0d10"/>
  <path fill="#d48b3a" d="M32 10c-10.5 0-19 7.8-19 17.4 0 9.2 4.2 17.1 8.4 22.2l4.2-10.8c-3.5-2.4-6.1-6.2-6.1-10.3 0-7 5.7-12.6 12.6-12.6s12.6 5.6 12.6 12.6c0 4.1-2.6 7.9-6.1 10.3l4.2 10.8c4.2-5.1 8.4-13 8.4-22.2C51 17.8 42.5 10 32 10z"/>
  <path fill="#c9d2d9" d="M19 31.5c3.4 2.7 8.1 4.3 13 4.3s9.6-1.6 13-4.3c-.7 6.4-6.1 11.3-13 11.3s-12.3-4.9-13-11.3z"/>
  <path fill="#0b0d10" d="M26 30.5c2 1.2 4.2 1.9 6 1.9s4-.7 6-1.9c-1.8-.4-3.8-.7-6-.7s-4.2.3-6 .7z"/>
</svg>
